<?xml version="1.0" encoding="UTF-8"?>
<svg width="800" height="500" xmlns="http://www.w3.org/2000/svg">
  <!-- Background -->
  <rect width="800" height="500" fill="#E8EAF6" />
  
  <!-- Design elements -->
  <circle cx="650" cy="100" r="80" fill="#C5CAE9" />
  <rect x="100" y="300" width="180" height="150" rx="15" fill="#C5CAE9" />
  
  <!-- AI Brain representation -->
  <g transform="translate(300, 120)">
    <ellipse cx="100" cy="100" rx="120" ry="90" fill="#FFFFFF" stroke="#3F51B5" stroke-width="2" />
    <!-- Circuit patterns -->
    <path d="M30,70 L80,70" stroke="#3F51B5" stroke-width="2" />
    <path d="M30,100 L170,100" stroke="#3F51B5" stroke-width="2" />
    <path d="M30,130 L80,130" stroke="#3F51B5" stroke-width="2" />
    <path d="M120,130 L170,130" stroke="#3F51B5" stroke-width="2" />
    <path d="M80,70 L80,130" stroke="#3F51B5" stroke-width="2" />
    <path d="M120,70 L120,130" stroke="#3F51B5" stroke-width="2" />
    <path d="M170,70 L170,130" stroke="#3F51B5" stroke-width="2" />
    
    <!-- Nodes -->
    <circle cx="30" cy="70" r="5" fill="#3F51B5" />
    <circle cx="30" cy="100" r="5" fill="#3F51B5" />
    <circle cx="30" cy="130" r="5" fill="#3F51B5" />
    <circle cx="80" cy="70" r="5" fill="#3F51B5" />
    <circle cx="80" cy="100" r="5" fill="#3F51B5" />
    <circle cx="80" cy="130" r="5" fill="#3F51B5" />
    <circle cx="120" cy="70" r="5" fill="#3F51B5" />
    <circle cx="120" cy="100" r="5" fill="#3F51B5" />
    <circle cx="120" cy="130" r="5" fill="#3F51B5" />
    <circle cx="170" cy="70" r="5" fill="#3F51B5" />
    <circle cx="170" cy="100" r="5" fill="#3F51B5" />
    <circle cx="170" cy="130" r="5" fill="#3F51B5" />
  </g>
  
  <!-- Title -->
  <text x="400" y="400" font-family="Arial, sans-serif" font-size="24" text-anchor="middle" font-weight="bold" fill="#303F9F">AI Marketing</text>
</svg> 